<svg width="298" height="140" viewBox="0 0 298 140" fill="none" xmlns="http://www.w3.org/2000/svg">
<g filter="url(#filter0_d)">
<circle cx="74.2857" cy="72" r="60" fill="#454545"/>
</g>
<g filter="url(#filter1_d)">
<circle cx="149.286" cy="72" r="60" fill="#8F8F8F"/>
</g>
<g filter="url(#filter2_d)">
<circle cx="224.286" cy="72" r="60" fill="#CDCDCD"/>
</g>
<g filter="url(#filter3_d)">
<circle cx="284.286" cy="72.8571" r="9.42857" transform="rotate(-180 284.286 72.8571)" fill="#454545"/>
</g>
<g filter="url(#filter4_d)">
<circle cx="13.4286" cy="72.8571" r="9.42857" transform="rotate(-180 13.4286 72.8571)" fill="#8F8F8F"/>
</g>
<g filter="url(#filter5_d)">
<circle cx="148.857" cy="9.42858" r="9.42857" transform="rotate(-180 148.857 9.42858)" fill="#CDCDCD"/>
</g>
<g filter="url(#filter6_d)">
<circle cx="119.93" cy="72.879" r="1.56688" fill="white"/>
</g>
<g filter="url(#filter7_d)">
<circle cx="160.669" cy="72.879" r="1.56688" fill="white"/>
</g>
<path d="M71.5708 76.099C71.0061 76.099 70.4928 75.9707 70.0308 75.714C69.5761 75.4573 69.2168 75.0943 68.9528 74.625C68.6961 74.1483 68.5678 73.5983 68.5678 72.975C68.5678 72.359 68.6998 71.8163 68.9638 71.347C69.2351 70.8703 69.6018 70.5073 70.0638 70.258C70.5258 70.0013 71.0428 69.873 71.6148 69.873C72.1868 69.873 72.7038 70.0013 73.1658 70.258C73.6278 70.5073 73.9908 70.8667 74.2548 71.336C74.5261 71.8053 74.6618 72.3517 74.6618 72.975C74.6618 73.5983 74.5224 74.1483 74.2438 74.625C73.9724 75.0943 73.6021 75.4573 73.1328 75.714C72.6634 75.9707 72.1428 76.099 71.5708 76.099ZM71.5708 75.219C71.9301 75.219 72.2674 75.1347 72.5828 74.966C72.8981 74.7973 73.1511 74.5443 73.3418 74.207C73.5398 73.8697 73.6388 73.459 73.6388 72.975C73.6388 72.491 73.5434 72.0803 73.3528 71.743C73.1621 71.4057 72.9128 71.1563 72.6048 70.995C72.2968 70.8263 71.9631 70.742 71.6038 70.742C71.2371 70.742 70.8998 70.8263 70.5918 70.995C70.2911 71.1563 70.0491 71.4057 69.8658 71.743C69.6824 72.0803 69.5908 72.491 69.5908 72.975C69.5908 73.4663 69.6788 73.8807 69.8548 74.218C70.0381 74.5553 70.2801 74.8083 70.5808 74.977C70.8814 75.1383 71.2114 75.219 71.5708 75.219ZM76.9789 71.094C77.1842 70.7347 77.4849 70.4413 77.8809 70.214C78.2769 69.9867 78.7279 69.873 79.2339 69.873C79.7766 69.873 80.2642 70.0013 80.6969 70.258C81.1296 70.5147 81.4706 70.8777 81.7199 71.347C81.9692 71.809 82.0939 72.348 82.0939 72.964C82.0939 73.5727 81.9692 74.1153 81.7199 74.592C81.4706 75.0687 81.1259 75.439 80.6859 75.703C80.2532 75.967 79.7692 76.099 79.2339 76.099C78.7132 76.099 78.2549 75.9853 77.8589 75.758C77.4702 75.5307 77.1769 75.241 76.9789 74.889V76H75.9779V67.86H76.9789V71.094ZM81.0709 72.964C81.0709 72.5093 80.9792 72.1133 80.7959 71.776C80.6126 71.4387 80.3632 71.182 80.0479 71.006C79.7399 70.83 79.3989 70.742 79.0249 70.742C78.6582 70.742 78.3172 70.8337 78.0019 71.017C77.6939 71.193 77.4446 71.4533 77.2539 71.798C77.0706 72.1353 76.9789 72.5277 76.9789 72.975C76.9789 73.4297 77.0706 73.8293 77.2539 74.174C77.4446 74.5113 77.6939 74.7717 78.0019 74.955C78.3172 75.131 78.6582 75.219 79.0249 75.219C79.3989 75.219 79.7399 75.131 80.0479 74.955C80.3632 74.7717 80.6126 74.5113 80.7959 74.174C80.9792 73.8293 81.0709 73.426 81.0709 72.964ZM85.5455 76.099C85.0835 76.099 84.6692 76.022 84.3025 75.868C83.9358 75.7067 83.6462 75.4867 83.4335 75.208C83.2208 74.922 83.1035 74.5957 83.0815 74.229H84.1155C84.1448 74.5297 84.2842 74.7753 84.5335 74.966C84.7902 75.1567 85.1238 75.252 85.5345 75.252C85.9158 75.252 86.2165 75.1677 86.4365 74.999C86.6565 74.8303 86.7665 74.6177 86.7665 74.361C86.7665 74.097 86.6492 73.9027 86.4145 73.778C86.1798 73.646 85.8168 73.5177 85.3255 73.393C84.8782 73.2757 84.5115 73.1583 84.2255 73.041C83.9468 72.9163 83.7048 72.7367 83.4995 72.502C83.3015 72.26 83.2025 71.9447 83.2025 71.556C83.2025 71.248 83.2942 70.9657 83.4775 70.709C83.6608 70.4523 83.9212 70.2507 84.2585 70.104C84.5958 69.95 84.9808 69.873 85.4135 69.873C86.0808 69.873 86.6198 70.0417 87.0305 70.379C87.4412 70.7163 87.6612 71.1783 87.6905 71.765H86.6895C86.6675 71.4497 86.5392 71.1967 86.3045 71.006C86.0772 70.8153 85.7692 70.72 85.3805 70.72C85.0212 70.72 84.7352 70.797 84.5225 70.951C84.3098 71.105 84.2035 71.3067 84.2035 71.556C84.2035 71.754 84.2658 71.919 84.3905 72.051C84.5225 72.1757 84.6838 72.2783 84.8745 72.359C85.0725 72.4323 85.3438 72.5167 85.6885 72.612C86.1212 72.7293 86.4732 72.8467 86.7445 72.964C87.0158 73.074 87.2468 73.2427 87.4375 73.47C87.6355 73.6973 87.7382 73.9943 87.7455 74.361C87.7455 74.691 87.6538 74.988 87.4705 75.252C87.2872 75.516 87.0268 75.725 86.6895 75.879C86.3595 76.0257 85.9782 76.099 85.5455 76.099ZM94.6586 72.755C94.6586 72.9457 94.6476 73.1473 94.6256 73.36H89.8076C89.8442 73.954 90.0459 74.4197 90.4126 74.757C90.7866 75.087 91.2376 75.252 91.7656 75.252C92.1982 75.252 92.5576 75.153 92.8436 74.955C93.1369 74.7497 93.3422 74.4783 93.4596 74.141H94.5376C94.3762 74.7203 94.0536 75.1933 93.5696 75.56C93.0856 75.9193 92.4842 76.099 91.7656 76.099C91.1936 76.099 90.6802 75.9707 90.2256 75.714C89.7782 75.4573 89.4262 75.0943 89.1696 74.625C88.9129 74.1483 88.7846 73.5983 88.7846 72.975C88.7846 72.3517 88.9092 71.8053 89.1586 71.336C89.4079 70.8667 89.7562 70.5073 90.2036 70.258C90.6582 70.0013 91.1789 69.873 91.7656 69.873C92.3376 69.873 92.8436 69.9977 93.2836 70.247C93.7236 70.4963 94.0609 70.841 94.2956 71.281C94.5376 71.7137 94.6586 72.205 94.6586 72.755ZM93.6246 72.546C93.6246 72.1647 93.5402 71.8383 93.3716 71.567C93.2029 71.2883 92.9719 71.0793 92.6786 70.94C92.3926 70.7933 92.0736 70.72 91.7216 70.72C91.2156 70.72 90.7829 70.8813 90.4236 71.204C90.0716 71.5267 89.8699 71.974 89.8186 72.546H93.6246ZM96.9809 70.951C97.1569 70.6063 97.4062 70.3387 97.7289 70.148C98.0589 69.9573 98.4585 69.862 98.9279 69.862V70.896H98.6639C97.5419 70.896 96.9809 71.5047 96.9809 72.722V76H95.9799V69.972H96.9809V70.951ZM102.327 75.076L104.197 69.972H105.264L102.899 76H101.733L99.3684 69.972H100.446L102.327 75.076ZM111.749 72.755C111.749 72.9457 111.738 73.1473 111.716 73.36H106.898C106.935 73.954 107.137 74.4197 107.503 74.757C107.877 75.087 108.328 75.252 108.856 75.252C109.289 75.252 109.648 75.153 109.934 74.955C110.228 74.7497 110.433 74.4783 110.55 74.141H111.628C111.467 74.7203 111.144 75.1933 110.66 75.56C110.176 75.9193 109.575 76.099 108.856 76.099C108.284 76.099 107.771 75.9707 107.316 75.714C106.869 75.4573 106.517 75.0943 106.26 74.625C106.004 74.1483 105.875 73.5983 105.875 72.975C105.875 72.3517 106 71.8053 106.249 71.336C106.499 70.8667 106.847 70.5073 107.294 70.258C107.749 70.0013 108.27 69.873 108.856 69.873C109.428 69.873 109.934 69.9977 110.374 70.247C110.814 70.4963 111.152 70.841 111.386 71.281C111.628 71.7137 111.749 72.205 111.749 72.755ZM110.715 72.546C110.715 72.1647 110.631 71.8383 110.462 71.567C110.294 71.2883 110.063 71.0793 109.769 70.94C109.483 70.7933 109.164 70.72 108.812 70.72C108.306 70.72 107.874 70.8813 107.514 71.204C107.162 71.5267 106.961 71.974 106.909 72.546H110.715Z" fill="white"/>
<path d="M128.621 70.797V74.35C128.621 74.6433 128.684 74.8523 128.808 74.977C128.933 75.0943 129.149 75.153 129.457 75.153H130.194V76H129.292C128.735 76 128.317 75.8717 128.038 75.615C127.76 75.3583 127.62 74.9367 127.62 74.35V70.797H126.839V69.972H127.62V68.454H128.621V69.972H130.194V70.797H128.621ZM134.399 69.862C134.854 69.862 135.265 69.961 135.631 70.159C135.998 70.3497 136.284 70.6393 136.489 71.028C136.702 71.4167 136.808 71.8897 136.808 72.447V76H135.818V72.59C135.818 71.9887 135.668 71.5303 135.367 71.215C135.067 70.8923 134.656 70.731 134.135 70.731C133.607 70.731 133.186 70.896 132.87 71.226C132.562 71.556 132.408 72.0363 132.408 72.667V76H131.407V67.86H132.408V70.83C132.606 70.522 132.878 70.2837 133.222 70.115C133.574 69.9463 133.967 69.862 134.399 69.862ZM138.96 68.993C138.77 68.993 138.608 68.927 138.476 68.795C138.344 68.663 138.278 68.5017 138.278 68.311C138.278 68.1203 138.344 67.959 138.476 67.827C138.608 67.695 138.77 67.629 138.96 67.629C139.144 67.629 139.298 67.695 139.422 67.827C139.554 67.959 139.62 68.1203 139.62 68.311C139.62 68.5017 139.554 68.663 139.422 68.795C139.298 68.927 139.144 68.993 138.96 68.993ZM139.444 69.972V76H138.443V69.972H139.444ZM144.087 69.862C144.821 69.862 145.415 70.0857 145.869 70.533C146.324 70.973 146.551 71.611 146.551 72.447V76H145.561V72.59C145.561 71.9887 145.411 71.5303 145.11 71.215C144.81 70.8923 144.399 70.731 143.878 70.731C143.35 70.731 142.929 70.896 142.613 71.226C142.305 71.556 142.151 72.0363 142.151 72.667V76H141.15V69.972H142.151V70.83C142.349 70.522 142.617 70.2837 142.954 70.115C143.299 69.9463 143.677 69.862 144.087 69.862ZM151.553 76L149.188 73.338V76H148.187V67.86H149.188V72.645L151.509 69.972H152.906L150.068 72.975L152.917 76H151.553Z" fill="white"/>
<path d="M169.249 68.993C169.058 68.993 168.897 68.927 168.765 68.795C168.633 68.663 168.567 68.5017 168.567 68.311C168.567 68.1203 168.633 67.959 168.765 67.827C168.897 67.695 169.058 67.629 169.249 67.629C169.432 67.629 169.586 67.695 169.711 67.827C169.843 67.959 169.909 68.1203 169.909 68.311C169.909 68.5017 169.843 68.663 169.711 68.795C169.586 68.927 169.432 68.993 169.249 68.993ZM169.733 69.972V76H168.732V69.972H169.733ZM174.376 69.862C175.109 69.862 175.703 70.0857 176.158 70.533C176.612 70.973 176.84 71.611 176.84 72.447V76H175.85V72.59C175.85 71.9887 175.699 71.5303 175.399 71.215C175.098 70.8923 174.687 70.731 174.167 70.731C173.639 70.731 173.217 70.896 172.902 71.226C172.594 71.556 172.44 72.0363 172.44 72.667V76H171.439V69.972H172.44V70.83C172.638 70.522 172.905 70.2837 173.243 70.115C173.587 69.9463 173.965 69.862 174.376 69.862ZM181.412 69.862C182.145 69.862 182.739 70.0857 183.194 70.533C183.649 70.973 183.876 71.611 183.876 72.447V76H182.886V72.59C182.886 71.9887 182.736 71.5303 182.435 71.215C182.134 70.8923 181.724 70.731 181.203 70.731C180.675 70.731 180.253 70.896 179.938 71.226C179.63 71.556 179.476 72.0363 179.476 72.667V76H178.475V69.972H179.476V70.83C179.674 70.522 179.942 70.2837 180.279 70.115C180.624 69.9463 181.001 69.862 181.412 69.862ZM188.14 76.099C187.575 76.099 187.062 75.9707 186.6 75.714C186.145 75.4573 185.786 75.0943 185.522 74.625C185.265 74.1483 185.137 73.5983 185.137 72.975C185.137 72.359 185.269 71.8163 185.533 71.347C185.804 70.8703 186.171 70.5073 186.633 70.258C187.095 70.0013 187.612 69.873 188.184 69.873C188.756 69.873 189.273 70.0013 189.735 70.258C190.197 70.5073 190.56 70.8667 190.824 71.336C191.095 71.8053 191.231 72.3517 191.231 72.975C191.231 73.5983 191.092 74.1483 190.813 74.625C190.542 75.0943 190.171 75.4573 189.702 75.714C189.233 75.9707 188.712 76.099 188.14 76.099ZM188.14 75.219C188.499 75.219 188.837 75.1347 189.152 74.966C189.467 74.7973 189.72 74.5443 189.911 74.207C190.109 73.8697 190.208 73.459 190.208 72.975C190.208 72.491 190.113 72.0803 189.922 71.743C189.731 71.4057 189.482 71.1563 189.174 70.995C188.866 70.8263 188.532 70.742 188.173 70.742C187.806 70.742 187.469 70.8263 187.161 70.995C186.86 71.1563 186.618 71.4057 186.435 71.743C186.252 72.0803 186.16 72.491 186.16 72.975C186.16 73.4663 186.248 73.8807 186.424 74.218C186.607 74.5553 186.849 74.8083 187.15 74.977C187.451 75.1383 187.781 75.219 188.14 75.219ZM194.791 75.076L196.661 69.972H197.728L195.363 76H194.197L191.832 69.972H192.91L194.791 75.076ZM198.339 72.964C198.339 72.348 198.464 71.809 198.713 71.347C198.963 70.8777 199.304 70.5147 199.736 70.258C200.176 70.0013 200.664 69.873 201.199 69.873C201.727 69.873 202.186 69.9867 202.574 70.214C202.963 70.4413 203.253 70.7273 203.443 71.072V69.972H204.455V76H203.443V74.878C203.245 75.23 202.948 75.5233 202.552 75.758C202.164 75.9853 201.709 76.099 201.188 76.099C200.653 76.099 200.169 75.967 199.736 75.703C199.304 75.439 198.963 75.0687 198.713 74.592C198.464 74.1153 198.339 73.5727 198.339 72.964ZM203.443 72.975C203.443 72.5203 203.352 72.1243 203.168 71.787C202.985 71.4497 202.736 71.193 202.42 71.017C202.112 70.8337 201.771 70.742 201.397 70.742C201.023 70.742 200.682 70.83 200.374 71.006C200.066 71.182 199.821 71.4387 199.637 71.776C199.454 72.1133 199.362 72.5093 199.362 72.964C199.362 73.426 199.454 73.8293 199.637 74.174C199.821 74.5113 200.066 74.7717 200.374 74.955C200.682 75.131 201.023 75.219 201.397 75.219C201.771 75.219 202.112 75.131 202.42 74.955C202.736 74.7717 202.985 74.5113 203.168 74.174C203.352 73.8293 203.443 73.4297 203.443 72.975ZM207.368 70.797V74.35C207.368 74.6433 207.43 74.8523 207.555 74.977C207.679 75.0943 207.896 75.153 208.204 75.153H208.941V76H208.039C207.481 76 207.063 75.8717 206.785 75.615C206.506 75.3583 206.367 74.9367 206.367 74.35V70.797H205.586V69.972H206.367V68.454H207.368V69.972H208.941V70.797H207.368ZM215.654 72.755C215.654 72.9457 215.643 73.1473 215.621 73.36H210.803C210.839 73.954 211.041 74.4197 211.408 74.757C211.782 75.087 212.233 75.252 212.761 75.252C213.193 75.252 213.553 75.153 213.839 74.955C214.132 74.7497 214.337 74.4783 214.455 74.141H215.533C215.371 74.7203 215.049 75.1933 214.565 75.56C214.081 75.9193 213.479 76.099 212.761 76.099C212.189 76.099 211.675 75.9707 211.221 75.714C210.773 75.4573 210.421 75.0943 210.165 74.625C209.908 74.1483 209.78 73.5983 209.78 72.975C209.78 72.3517 209.904 71.8053 210.154 71.336C210.403 70.8667 210.751 70.5073 211.199 70.258C211.653 70.0013 212.174 69.873 212.761 69.873C213.333 69.873 213.839 69.9977 214.279 70.247C214.719 70.4963 215.056 70.841 215.291 71.281C215.533 71.7137 215.654 72.205 215.654 72.755ZM214.62 72.546C214.62 72.1647 214.535 71.8383 214.367 71.567C214.198 71.2883 213.967 71.0793 213.674 70.94C213.388 70.7933 213.069 70.72 212.717 70.72C212.211 70.72 211.778 70.8813 211.419 71.204C211.067 71.5267 210.865 71.974 210.814 72.546H214.62Z" fill="white"/>
<defs>
<filter id="filter0_d" x="10.2857" y="12" width="128" height="128" filterUnits="userSpaceOnUse" color-interpolation-filters="sRGB">
<feFlood flood-opacity="0" result="BackgroundImageFix"/>
<feColorMatrix in="SourceAlpha" type="matrix" values="0 0 0 0 0 0 0 0 0 0 0 0 0 0 0 0 0 0 127 0"/>
<feOffset dy="4"/>
<feGaussianBlur stdDeviation="2"/>
<feColorMatrix type="matrix" values="0 0 0 0 0 0 0 0 0 0 0 0 0 0 0 0 0 0 0.25 0"/>
<feBlend mode="normal" in2="BackgroundImageFix" result="effect1_dropShadow"/>
<feBlend mode="normal" in="SourceGraphic" in2="effect1_dropShadow" result="shape"/>
</filter>
<filter id="filter1_d" x="85.2856" y="12" width="128" height="128" filterUnits="userSpaceOnUse" color-interpolation-filters="sRGB">
<feFlood flood-opacity="0" result="BackgroundImageFix"/>
<feColorMatrix in="SourceAlpha" type="matrix" values="0 0 0 0 0 0 0 0 0 0 0 0 0 0 0 0 0 0 127 0"/>
<feOffset dy="4"/>
<feGaussianBlur stdDeviation="2"/>
<feColorMatrix type="matrix" values="0 0 0 0 0 0 0 0 0 0 0 0 0 0 0 0 0 0 0.25 0"/>
<feBlend mode="normal" in2="BackgroundImageFix" result="effect1_dropShadow"/>
<feBlend mode="normal" in="SourceGraphic" in2="effect1_dropShadow" result="shape"/>
</filter>
<filter id="filter2_d" x="160.286" y="12" width="128" height="128" filterUnits="userSpaceOnUse" color-interpolation-filters="sRGB">
<feFlood flood-opacity="0" result="BackgroundImageFix"/>
<feColorMatrix in="SourceAlpha" type="matrix" values="0 0 0 0 0 0 0 0 0 0 0 0 0 0 0 0 0 0 127 0"/>
<feOffset dy="4"/>
<feGaussianBlur stdDeviation="2"/>
<feColorMatrix type="matrix" values="0 0 0 0 0 0 0 0 0 0 0 0 0 0 0 0 0 0 0.25 0"/>
<feBlend mode="normal" in2="BackgroundImageFix" result="effect1_dropShadow"/>
<feBlend mode="normal" in="SourceGraphic" in2="effect1_dropShadow" result="shape"/>
</filter>
<filter id="filter3_d" x="270.857" y="63.4286" width="26.8571" height="26.8571" filterUnits="userSpaceOnUse" color-interpolation-filters="sRGB">
<feFlood flood-opacity="0" result="BackgroundImageFix"/>
<feColorMatrix in="SourceAlpha" type="matrix" values="0 0 0 0 0 0 0 0 0 0 0 0 0 0 0 0 0 0 127 0"/>
<feOffset dy="4"/>
<feGaussianBlur stdDeviation="2"/>
<feColorMatrix type="matrix" values="0 0 0 0 0 0 0 0 0 0 0 0 0 0 0 0 0 0 0.25 0"/>
<feBlend mode="normal" in2="BackgroundImageFix" result="effect1_dropShadow"/>
<feBlend mode="normal" in="SourceGraphic" in2="effect1_dropShadow" result="shape"/>
</filter>
<filter id="filter4_d" x="0" y="63.4286" width="26.8571" height="26.8571" filterUnits="userSpaceOnUse" color-interpolation-filters="sRGB">
<feFlood flood-opacity="0" result="BackgroundImageFix"/>
<feColorMatrix in="SourceAlpha" type="matrix" values="0 0 0 0 0 0 0 0 0 0 0 0 0 0 0 0 0 0 127 0"/>
<feOffset dy="4"/>
<feGaussianBlur stdDeviation="2"/>
<feColorMatrix type="matrix" values="0 0 0 0 0 0 0 0 0 0 0 0 0 0 0 0 0 0 0.25 0"/>
<feBlend mode="normal" in2="BackgroundImageFix" result="effect1_dropShadow"/>
<feBlend mode="normal" in="SourceGraphic" in2="effect1_dropShadow" result="shape"/>
</filter>
<filter id="filter5_d" x="135.429" y="0" width="26.8571" height="26.8571" filterUnits="userSpaceOnUse" color-interpolation-filters="sRGB">
<feFlood flood-opacity="0" result="BackgroundImageFix"/>
<feColorMatrix in="SourceAlpha" type="matrix" values="0 0 0 0 0 0 0 0 0 0 0 0 0 0 0 0 0 0 127 0"/>
<feOffset dy="4"/>
<feGaussianBlur stdDeviation="2"/>
<feColorMatrix type="matrix" values="0 0 0 0 0 0 0 0 0 0 0 0 0 0 0 0 0 0 0.25 0"/>
<feBlend mode="normal" in2="BackgroundImageFix" result="effect1_dropShadow"/>
<feBlend mode="normal" in="SourceGraphic" in2="effect1_dropShadow" result="shape"/>
</filter>
<filter id="filter6_d" x="114.363" y="71.3121" width="11.1338" height="11.1338" filterUnits="userSpaceOnUse" color-interpolation-filters="sRGB">
<feFlood flood-opacity="0" result="BackgroundImageFix"/>
<feColorMatrix in="SourceAlpha" type="matrix" values="0 0 0 0 0 0 0 0 0 0 0 0 0 0 0 0 0 0 127 0"/>
<feOffset dy="4"/>
<feGaussianBlur stdDeviation="2"/>
<feColorMatrix type="matrix" values="0 0 0 0 0 0 0 0 0 0 0 0 0 0 0 0 0 0 0.25 0"/>
<feBlend mode="normal" in2="BackgroundImageFix" result="effect1_dropShadow"/>
<feBlend mode="normal" in="SourceGraphic" in2="effect1_dropShadow" result="shape"/>
</filter>
<filter id="filter7_d" x="155.102" y="71.3121" width="11.1338" height="11.1338" filterUnits="userSpaceOnUse" color-interpolation-filters="sRGB">
<feFlood flood-opacity="0" result="BackgroundImageFix"/>
<feColorMatrix in="SourceAlpha" type="matrix" values="0 0 0 0 0 0 0 0 0 0 0 0 0 0 0 0 0 0 127 0"/>
<feOffset dy="4"/>
<feGaussianBlur stdDeviation="2"/>
<feColorMatrix type="matrix" values="0 0 0 0 0 0 0 0 0 0 0 0 0 0 0 0 0 0 0.25 0"/>
<feBlend mode="normal" in2="BackgroundImageFix" result="effect1_dropShadow"/>
<feBlend mode="normal" in="SourceGraphic" in2="effect1_dropShadow" result="shape"/>
</filter>
</defs>
</svg>
