<svg width="219" height="53" viewBox="0 0 219 53" fill="none" xmlns="http://www.w3.org/2000/svg">
<path d="M18.5686 0.919999V6.4H7.12859V12.32H15.6886V17.64H7.12859V29H0.288594V0.919999H18.5686ZM36.4836 29L30.6436 18.4H29.0036V29H22.1636V0.919999H33.6436C35.8569 0.919999 37.7369 1.30667 39.2836 2.08C40.8569 2.85333 42.0303 3.92 42.8036 5.28C43.5769 6.61333 43.9636 8.10667 43.9636 9.76C43.9636 11.6267 43.4303 13.2933 42.3636 14.76C41.3236 16.2267 39.7769 17.2667 37.7236 17.88L44.2036 29H36.4836ZM29.0036 13.56H33.2436C34.4969 13.56 35.4303 13.2533 36.0436 12.64C36.6836 12.0267 37.0036 11.16 37.0036 10.04C37.0036 8.97333 36.6836 8.13333 36.0436 7.52C35.4303 6.90667 34.4969 6.6 33.2436 6.6H29.0036V13.56ZM61.5373 29.28C58.8973 29.28 56.4707 28.6667 54.2573 27.44C52.0707 26.2133 50.324 24.5067 49.0173 22.32C47.7373 20.1067 47.0973 17.6267 47.0973 14.88C47.0973 12.1333 47.7373 9.66667 49.0173 7.48C50.324 5.29333 52.0707 3.58667 54.2573 2.36C56.4707 1.13333 58.8973 0.52 61.5373 0.52C64.1773 0.52 66.5907 1.13333 68.7773 2.36C70.9907 3.58667 72.724 5.29333 73.9773 7.48C75.2573 9.66667 75.8973 12.1333 75.8973 14.88C75.8973 17.6267 75.2573 20.1067 73.9773 22.32C72.6973 24.5067 70.964 26.2133 68.7773 27.44C66.5907 28.6667 64.1773 29.28 61.5373 29.28ZM61.5373 23.04C63.7773 23.04 65.564 22.2933 66.8973 20.8C68.2573 19.3067 68.9373 17.3333 68.9373 14.88C68.9373 12.4 68.2573 10.4267 66.8973 8.96C65.564 7.46666 63.7773 6.72 61.5373 6.72C59.2707 6.72 57.4573 7.45333 56.0973 8.92C54.764 10.3867 54.0973 12.3733 54.0973 14.88C54.0973 17.36 54.764 19.3467 56.0973 20.84C57.4573 22.3067 59.2707 23.04 61.5373 23.04ZM104.823 29H97.9827L86.5427 11.68V29H79.7027V0.919999H86.5427L97.9827 18.32V0.919999H104.823V29ZM129.981 0.919999V6.4H122.541V29H115.701V6.4H108.261V0.919999H129.981ZM148.73 6.4V12.08H157.89V17.36H148.73V23.52H159.09V29H141.89V0.919999H159.09V6.4H148.73ZM188.651 29H181.811L170.371 11.68V29H163.531V0.919999H170.371L181.811 18.32V0.919999H188.651V29ZM204.129 0.919999C207.089 0.919999 209.676 1.50667 211.889 2.68C214.102 3.85333 215.809 5.50667 217.009 7.64C218.236 9.74667 218.849 12.1867 218.849 14.96C218.849 17.7067 218.236 20.1467 217.009 22.28C215.809 24.4133 214.089 26.0667 211.849 27.24C209.636 28.4133 207.062 29 204.129 29H193.609V0.919999H204.129ZM203.689 23.08C206.276 23.08 208.289 22.3733 209.729 20.96C211.169 19.5467 211.889 17.5467 211.889 14.96C211.889 12.3733 211.169 10.36 209.729 8.92C208.289 7.48 206.276 6.76 203.689 6.76H200.449V23.08H203.689ZM32.6106 52.105C31.9206 52.105 31.3006 51.985 30.7506 51.745C30.2106 51.495 29.7856 51.155 29.4756 50.725C29.1656 50.285 29.0056 49.78 28.9956 49.21H30.4506C30.5006 49.7 30.7006 50.115 31.0506 50.455C31.4106 50.785 31.9306 50.95 32.6106 50.95C33.2606 50.95 33.7706 50.79 34.1406 50.47C34.5206 50.14 34.7106 49.72 34.7106 49.21C34.7106 48.81 34.6006 48.485 34.3806 48.235C34.1606 47.985 33.8856 47.795 33.5556 47.665C33.2256 47.535 32.7806 47.395 32.2206 47.245C31.5306 47.065 30.9756 46.885 30.5556 46.705C30.1456 46.525 29.7906 46.245 29.4906 45.865C29.2006 45.475 29.0556 44.955 29.0556 44.305C29.0556 43.735 29.2006 43.23 29.4906 42.79C29.7806 42.35 30.1856 42.01 30.7056 41.77C31.2356 41.53 31.8406 41.41 32.5206 41.41C33.5006 41.41 34.3006 41.655 34.9206 42.145C35.5506 42.635 35.9056 43.285 35.9856 44.095H34.4856C34.4356 43.695 34.2256 43.345 33.8556 43.045C33.4856 42.735 32.9956 42.58 32.3856 42.58C31.8156 42.58 31.3506 42.73 30.9906 43.03C30.6306 43.32 30.4506 43.73 30.4506 44.26C30.4506 44.64 30.5556 44.95 30.7656 45.19C30.9856 45.43 31.2506 45.615 31.5606 45.745C31.8806 45.865 32.3256 46.005 32.8956 46.165C33.5856 46.355 34.1406 46.545 34.5606 46.735C34.9806 46.915 35.3406 47.2 35.6406 47.59C35.9406 47.97 36.0906 48.49 36.0906 49.15C36.0906 49.66 35.9556 50.14 35.6856 50.59C35.4156 51.04 35.0156 51.405 34.4856 51.685C33.9556 51.965 33.3306 52.105 32.6106 52.105ZM42.8393 52.105C41.8693 52.105 40.9843 51.88 40.1843 51.43C39.3843 50.97 38.7493 50.335 38.2793 49.525C37.8193 48.705 37.5893 47.785 37.5893 46.765C37.5893 45.745 37.8193 44.83 38.2793 44.02C38.7493 43.2 39.3843 42.565 40.1843 42.115C40.9843 41.655 41.8693 41.425 42.8393 41.425C43.8193 41.425 44.7093 41.655 45.5093 42.115C46.3093 42.565 46.9393 43.195 47.3993 44.005C47.8593 44.815 48.0893 45.735 48.0893 46.765C48.0893 47.795 47.8593 48.715 47.3993 49.525C46.9393 50.335 46.3093 50.97 45.5093 51.43C44.7093 51.88 43.8193 52.105 42.8393 52.105ZM42.8393 50.92C43.5693 50.92 44.2243 50.75 44.8043 50.41C45.3943 50.07 45.8543 49.585 46.1843 48.955C46.5243 48.325 46.6943 47.595 46.6943 46.765C46.6943 45.925 46.5243 45.195 46.1843 44.575C45.8543 43.945 45.3993 43.46 44.8193 43.12C44.2393 42.78 43.5793 42.61 42.8393 42.61C42.0993 42.61 41.4393 42.78 40.8593 43.12C40.2793 43.46 39.8193 43.945 39.4793 44.575C39.1493 45.195 38.9843 45.925 38.9843 46.765C38.9843 47.595 39.1493 48.325 39.4793 48.955C39.8193 49.585 40.2793 50.07 40.8593 50.41C41.4493 50.75 42.1093 50.92 42.8393 50.92ZM55.8013 41.545V42.655H51.2563V46.18H54.9463V47.29H51.2563V52H49.8913V41.545H55.8013ZM63.8849 41.545V42.655H61.0349V52H59.6699V42.655H56.8049V41.545H63.8849ZM78.7052 41.545L75.6752 52H74.1452L71.7152 43.585L69.1952 52L67.6802 52.015L64.7552 41.545H66.2102L68.4902 50.41L71.0102 41.545H72.5402L74.9402 50.38L77.2352 41.545H78.7052ZM86.3789 49.675H81.8189L80.9789 52H79.5389L83.3189 41.605H84.8939L88.6589 52H87.2189L86.3789 49.675ZM85.9889 48.565L84.0989 43.285L82.2089 48.565H85.9889ZM95.8114 52L93.3214 47.725H91.6714V52H90.3064V41.545H93.6814C94.4714 41.545 95.1364 41.68 95.6764 41.95C96.2264 42.22 96.6364 42.585 96.9064 43.045C97.1764 43.505 97.3114 44.03 97.3114 44.62C97.3114 45.34 97.1014 45.975 96.6814 46.525C96.2714 47.075 95.6514 47.44 94.8214 47.62L97.4464 52H95.8114ZM91.6714 46.63H93.6814C94.4214 46.63 94.9764 46.45 95.3464 46.09C95.7164 45.72 95.9014 45.23 95.9014 44.62C95.9014 44 95.7164 43.52 95.3464 43.18C94.9864 42.84 94.4314 42.67 93.6814 42.67H91.6714V46.63ZM100.797 42.655V46.15H104.607V47.275H100.797V50.875H105.057V52H99.4323V41.53H105.057V42.655H100.797ZM114.377 41.545C115.517 41.545 116.502 41.76 117.332 42.19C118.172 42.61 118.812 43.215 119.252 44.005C119.702 44.795 119.927 45.725 119.927 46.795C119.927 47.865 119.702 48.795 119.252 49.585C118.812 50.365 118.172 50.965 117.332 51.385C116.502 51.795 115.517 52 114.377 52H111.122V41.545H114.377ZM114.377 50.875C115.727 50.875 116.757 50.52 117.467 49.81C118.177 49.09 118.532 48.085 118.532 46.795C118.532 45.495 118.172 44.48 117.452 43.75C116.742 43.02 115.717 42.655 114.377 42.655H112.487V50.875H114.377ZM123.092 42.655V46.15H126.902V47.275H123.092V50.875H127.352V52H121.727V41.53H127.352V42.655H123.092ZM138.058 41.545L134.113 52H132.538L128.593 41.545H130.048L133.333 50.56L136.618 41.545H138.058ZM140.919 42.655V46.15H144.729V47.275H140.919V50.875H145.179V52H139.554V41.53H145.179V42.655H140.919ZM148.61 50.89H152.27V52H147.245V41.545H148.61V50.89ZM158.459 52.105C157.489 52.105 156.604 51.88 155.804 51.43C155.004 50.97 154.369 50.335 153.899 49.525C153.439 48.705 153.209 47.785 153.209 46.765C153.209 45.745 153.439 44.83 153.899 44.02C154.369 43.2 155.004 42.565 155.804 42.115C156.604 41.655 157.489 41.425 158.459 41.425C159.439 41.425 160.329 41.655 161.129 42.115C161.929 42.565 162.559 43.195 163.019 44.005C163.479 44.815 163.709 45.735 163.709 46.765C163.709 47.795 163.479 48.715 163.019 49.525C162.559 50.335 161.929 50.97 161.129 51.43C160.329 51.88 159.439 52.105 158.459 52.105ZM158.459 50.92C159.189 50.92 159.844 50.75 160.424 50.41C161.014 50.07 161.474 49.585 161.804 48.955C162.144 48.325 162.314 47.595 162.314 46.765C162.314 45.925 162.144 45.195 161.804 44.575C161.474 43.945 161.019 43.46 160.439 43.12C159.859 42.78 159.199 42.61 158.459 42.61C157.719 42.61 157.059 42.78 156.479 43.12C155.899 43.46 155.439 43.945 155.099 44.575C154.769 45.195 154.604 45.925 154.604 46.765C154.604 47.595 154.769 48.325 155.099 48.955C155.439 49.585 155.899 50.07 156.479 50.41C157.069 50.75 157.729 50.92 158.459 50.92ZM172.501 44.605C172.501 45.475 172.201 46.2 171.601 46.78C171.011 47.35 170.106 47.635 168.886 47.635H166.876V52H165.511V41.545H168.886C170.066 41.545 170.961 41.83 171.571 42.4C172.191 42.97 172.501 43.705 172.501 44.605ZM168.886 46.51C169.646 46.51 170.206 46.345 170.566 46.015C170.926 45.685 171.106 45.215 171.106 44.605C171.106 43.315 170.366 42.67 168.886 42.67H166.876V46.51H168.886ZM175.563 42.655V46.15H179.373V47.275H175.563V50.875H179.823V52H174.198V41.53H179.823V42.655H175.563ZM187.393 52L184.903 47.725H183.253V52H181.888V41.545H185.263C186.053 41.545 186.718 41.68 187.258 41.95C187.808 42.22 188.218 42.585 188.488 43.045C188.758 43.505 188.893 44.03 188.893 44.62C188.893 45.34 188.683 45.975 188.263 46.525C187.853 47.075 187.233 47.44 186.403 47.62L189.028 52H187.393ZM183.253 46.63H185.263C186.003 46.63 186.558 46.45 186.928 46.09C187.298 45.72 187.483 45.23 187.483 44.62C187.483 44 187.298 43.52 186.928 43.18C186.568 42.84 186.013 42.67 185.263 42.67H183.253V46.63Z" fill="white"/>
</svg>
