<svg width="28" height="28" viewBox="0 0 28 28" fill="none" xmlns="http://www.w3.org/2000/svg">
<path d="M27.4711 10.6867C27.3458 10.5046 27.177 10.3566 26.9801 10.2561C26.7832 10.1556 26.5643 10.1058 26.3433 10.1111H8.68778C8.31525 10.1269 7.95441 10.2458 7.64544 10.4545C7.33646 10.6632 7.09149 10.9536 6.93778 11.2933C6.93524 11.3296 6.93524 11.366 6.93778 11.4022L4.66667 19.4444V5.44445H9.71445L11.7444 8.23667C11.8169 8.33575 11.9117 8.4163 12.0212 8.47173C12.1307 8.52715 12.2517 8.55588 12.3744 8.55556H24.8889C24.8889 8.143 24.725 7.74734 24.4333 7.45561C24.1416 7.16389 23.7459 7 23.3333 7H12.7711L10.9744 4.52667C10.8296 4.32849 10.64 4.1674 10.421 4.05655C10.202 3.94571 9.95989 3.88825 9.71445 3.88889H4.66667C4.25411 3.88889 3.85845 4.05278 3.56673 4.3445C3.275 4.63623 3.11111 5.03189 3.11111 5.44445V23.0922C3.12326 23.3721 3.24515 23.636 3.4504 23.8267C3.65565 24.0174 3.92774 24.1196 4.20778 24.1111H23.5978C23.7713 24.118 23.9422 24.0666 24.0832 23.9651C24.2241 23.8637 24.3271 23.7179 24.3756 23.5511L27.6344 11.8067C27.6952 11.62 27.7121 11.4218 27.6838 11.2276C27.6555 11.0333 27.5827 10.8482 27.4711 10.6867Z" fill="#F7F7F7"/>
</svg>
