<svg width="21" height="21" viewBox="0 0 21 21" fill="none" xmlns="http://www.w3.org/2000/svg">
<path d="M18.5326 13.3385L20.7834 14.4646C21.0722 14.6089 21.0722 15.0211 20.7834 15.1654L10.8507 20.1331C10.7419 20.1874 10.6219 20.2157 10.5003 20.2157C10.3786 20.2157 10.2587 20.1874 10.1498 20.1331L0.217103 15.1654C0.152216 15.1327 0.0976848 15.0826 0.0595836 15.0208C0.0214824 14.9589 0.00130799 14.8877 0.00130799 14.815C0.00130799 14.7423 0.0214824 14.6711 0.0595836 14.6092C0.0976848 14.5474 0.152216 14.4973 0.217103 14.4646L2.46929 13.3385L9.44768 16.8283C10.1105 17.1591 10.8914 17.1591 11.5529 16.8283L18.5313 13.3372L18.5326 13.3385ZM10.1498 0.082575C10.2587 0.0282687 10.3786 0 10.5003 0C10.6219 0 10.7419 0.0282687 10.8507 0.082575L20.7834 5.04895C20.8483 5.08186 20.9027 5.13209 20.9408 5.19406C20.9788 5.25603 20.9989 5.32732 20.9989 5.40003C20.9989 5.47274 20.9788 5.54403 20.9408 5.606C20.9027 5.66797 20.8483 5.7182 20.7834 5.75112L10.8507 10.7162C10.7419 10.7705 10.6219 10.7987 10.5003 10.7987C10.3786 10.7987 10.2587 10.7705 10.1498 10.7162L0.217103 5.75112C0.151872 5.71854 0.0970071 5.66844 0.0586599 5.60642C0.0203126 5.54441 0 5.47294 0 5.40003C0 5.32712 0.0203126 5.25565 0.0586599 5.19364C0.0970071 5.13162 0.151872 5.08152 0.217103 5.04895L10.1498 0.082575Z" fill="white"/>
<path d="M18.5326 8.63068L20.7834 9.75677C21.0722 9.90114 21.0722 10.3133 20.7834 10.4576L10.8507 15.424C10.7419 15.4783 10.6219 15.5066 10.5003 15.5066C10.3786 15.5066 10.2587 15.4783 10.1498 15.424L0.217107 10.4576C0.152221 10.4249 0.097689 10.3748 0.0595879 10.313C0.0214867 10.2511 0.00131226 10.1799 0.00131226 10.1072C0.00131226 10.0345 0.0214867 9.9633 0.0595879 9.90143C0.097689 9.83956 0.152221 9.78948 0.217107 9.75677L2.4693 8.63068L9.44768 12.1205C10.1105 12.4513 10.8914 12.4513 11.5529 12.1205L18.5313 8.63068H18.5326Z" fill="white"/>
</svg>
